<svg viewBox="0 0 237 162" fill="none" xmlns="http://www.w3.org/2000/svg">
<circle cx="200.5" cy="32.5" r="6.5" fill="url(#paint0_linear_2138_65)"/>
<ellipse cx="45.5" cy="10" rx="10.5" ry="10" fill="url(#paint1_linear_2138_65)"/>
<ellipse cx="40" cy="136.5" rx="5" ry="5.5" fill="url(#paint2_linear_2138_65)"/>
<ellipse cx="188.5" cy="160" rx="2.5" ry="2" fill="url(#paint3_linear_2138_65)"/>
<path d="M3.6 98V62.6H15.3C26.7 62.6 36.25 67.45 36.25 80.4C36.25 91.85 26.9 98 16.35 98H3.6ZM11.4 69.8V90.8H15.45C22.7 90.8 28.15 88.05 28.15 80C28.15 73.05 22.6 69.8 16 69.8H11.4ZM58.3395 89.95L63.5895 93.8C61.1895 96.85 57.2395 98.6 53.3395 98.6C45.8395 98.6 39.8395 93.6 39.8395 85.85C39.8395 78.1 45.8395 73.1 53.3395 73.1C60.3395 73.1 64.7395 78.1 64.7395 85.85V88.2H47.3395C47.9395 91.05 50.0895 92.9 52.9895 92.9C55.4395 92.9 57.0895 91.65 58.3395 89.95ZM47.3395 83.1H57.2395C57.2895 80.6 55.3395 78.5 52.6395 78.5C49.3395 78.5 47.5395 80.75 47.3395 83.1ZM76.8004 98L66.7504 73.7H74.8504L81.0004 90.2H81.1004L86.8004 73.7H94.3504L84.7504 98H76.8004ZM93.5227 93.7C93.5227 91.15 95.5727 89.1 98.1227 89.1C100.673 89.1 102.723 91.15 102.723 93.7C102.723 96.25 100.673 98.3 98.1227 98.3C95.5727 98.3 93.5227 96.25 93.5227 93.7ZM108.268 98V60.2H115.768V98H108.268ZM121.256 98V73.7H128.756V98H121.256ZM120.656 66.05C120.656 63.65 122.606 61.7 125.006 61.7C127.406 61.7 129.356 63.65 129.356 66.05C129.356 68.45 127.406 70.4 125.006 70.4C122.606 70.4 120.656 68.45 120.656 66.05ZM141.644 98L131.594 73.7H139.694L145.844 90.2H145.944L151.644 73.7H159.194L149.594 98H141.644ZM179.677 89.95L184.927 93.8C182.527 96.85 178.577 98.6 174.677 98.6C167.177 98.6 161.177 93.6 161.177 85.85C161.177 78.1 167.177 73.1 174.677 73.1C181.677 73.1 186.077 78.1 186.077 85.85V88.2H168.677C169.277 91.05 171.427 92.9 174.327 92.9C176.777 92.9 178.427 91.65 179.677 89.95ZM168.677 83.1H178.577C178.627 80.6 176.677 78.5 173.977 78.5C170.677 78.5 168.877 80.75 168.677 83.1ZM190.638 98V73.7H198.138V77.6H198.238C199.838 74.65 201.938 73.1 205.238 73.1C206.088 73.1 207.038 73.15 207.738 73.35V80.2C206.688 79.9 205.638 79.7 204.538 79.7C198.838 79.7 198.138 83 198.138 87.85V98H190.638ZM236 73.7L225 101.95C223 107.1 221.85 110 214.7 110C212.8 110 210.9 109.7 209.1 109.1L210.1 102.95C211.25 103.45 212.35 103.7 213.6 103.7C217 103.7 217.55 102.25 218.6 99.6L219.15 98.2L208.5 73.7H216.6L222.85 89.75H222.95L228.3 73.7H236Z" fill="#05C7F2"/>
<defs>
<linearGradient id="paint0_linear_2138_65" x1="194" y1="25.2018" x2="209.007" y2="27.5269" gradientUnits="userSpaceOnUse">
<stop stop-color="#05C7F2"/>
<stop offset="1" stop-color="#05C7F2"/>
</linearGradient>
<linearGradient id="paint1_linear_2138_65" x1="35" y1="-1.22807" x2="59.1844" y2="2.7063" gradientUnits="userSpaceOnUse">
<stop stop-color="#05C7F2"/>
<stop offset="1" stop-color="#05C7F2"/>
</linearGradient>
<linearGradient id="paint2_linear_2138_65" x1="35" y1="130.325" x2="46.5912" y2="131.957" gradientUnits="userSpaceOnUse">
<stop stop-color="#05C7F2"/>
<stop offset="1" stop-color="#05C7F2"/>
</linearGradient>
<linearGradient id="paint3_linear_2138_65" x1="186" y1="157.754" x2="191.697" y2="158.858" gradientUnits="userSpaceOnUse">
<stop stop-color="#05C7F2"/>
<stop offset="1" stop-color="#05C7F2"/>
</linearGradient>
</defs>
</svg>
